<?xml version="1.0" standalone="no"?>
<!DOCTYPE svg PUBLIC "-//W3C//DTD SVG 20010904//EN"
 "http://www.w3.org/TR/2001/REC-SVG-20010904/DTD/svg10.dtd">
<svg version="1.0" xmlns="http://www.w3.org/2000/svg"
 width="1000.000000pt" height="1000.000000pt" viewBox="0 0 1000.000000 1000.000000"
 preserveAspectRatio="xMidYMid meet">
<metadata>
Created by potrace 1.11, written by Peter Selinger 2001-2013
</metadata>
<g transform="translate(0.000000,1000.000000) scale(0.100000,-0.100000)"
fill="#000000" stroke="none">
<path d="M6255 8796 c-137 -87 -175 -111 -612 -384 l-443 -277 0 -530 c0 -291
-3 -1663 -5 -3048 -3 -1384 -2 -2517 1 -2517 2 0 17 9 32 19 15 11 263 167
552 347 289 180 527 331 531 336 5 8 8 634 9 1727 l0 523 63 -6 c72 -7 139
-15 182 -21 17 -3 48 -7 70 -10 22 -4 51 -8 65 -11 14 -2 52 -8 85 -14 70 -11
205 -40 325 -70 47 -12 93 -23 103 -25 55 -12 339 -104 397 -128 14 -6 27 -11
30 -11 7 -2 69 -26 105 -41 17 -7 59 -25 95 -40 107 -45 377 -182 505 -258
413 -242 775 -537 1059 -862 113 -128 117 -134 166 -200 25 -33 47 -62 50 -65
15 -13 105 -147 165 -245 56 -90 147 -263 203 -385 9 -19 11 62 7 350 -3 206
-7 397 -9 424 -16 178 -20 209 -36 306 -5 30 -12 72 -16 93 -3 22 -12 56 -19
78 -8 21 -13 39 -11 39 6 0 -19 77 -58 183 -138 366 -422 687 -883 996 -383
257 -829 476 -1259 620 -138 46 -431 127 -529 146 -22 5 -44 9 -50 11 -27 7
-280 54 -322 60 -26 3 -50 8 -53 9 -3 2 -35 7 -70 10 -36 4 -69 9 -73 12 -8 5
175 128 693 468 69 45 301 198 515 340 215 141 517 341 673 444 653 430 750
496 924 627 196 147 293 225 415 329 6 6 41 39 78 75 161 157 107 175 -150 50
-258 -126 -271 -134 -1470 -870 -203 -125 -453 -278 -555 -340 -102 -63 -256
-160 -342 -216 -86 -57 -235 -153 -330 -215 -95 -61 -222 -144 -283 -184 -60
-39 -144 -93 -185 -120 -41 -27 -102 -66 -135 -88 -33 -22 -76 -50 -96 -63
l-36 -23 1 1345 c1 739 2 1344 1 1344 0 0 -31 -20 -70 -44z"/>
<path d="M4701 7885 c-57 -36 -107 -65 -112 -65 -5 0 -9 -4 -9 -8 0 -5 -12
-15 -27 -23 -15 -8 -158 -96 -317 -196 -160 -100 -350 -218 -421 -263 l-131
-81 -2 -837 c-1 -460 -2 -852 -2 -870 0 -18 -4 -31 -8 -28 -5 3 -37 8 -73 11
-65 7 -309 40 -364 51 -501 93 -887 219 -1289 421 -185 92 -474 257 -496 282
-3 3 -32 24 -65 45 -290 189 -628 493 -871 786 -81 97 -192 247 -248 335 -21
33 -49 76 -61 95 -43 67 -109 193 -188 360 -16 33 -16 14 -12 -340 3 -206 7
-395 10 -420 8 -87 17 -175 21 -205 12 -103 17 -134 24 -165 5 -19 11 -47 14
-62 2 -15 14 -62 26 -105 82 -304 242 -568 487 -803 118 -113 133 -127 243
-210 47 -36 87 -67 90 -70 6 -7 207 -141 231 -155 10 -5 71 -41 136 -80 65
-38 145 -85 178 -103 78 -43 360 -182 368 -182 4 0 35 -13 69 -30 34 -16 65
-30 70 -30 5 0 28 -9 51 -19 162 -73 617 -212 837 -255 14 -2 70 -13 125 -24
55 -11 165 -30 245 -42 80 -12 153 -25 164 -29 18 -7 -21 -35 -334 -236 -70
-46 -152 -98 -510 -332 -80 -52 -181 -118 -225 -146 -44 -29 -190 -124 -325
-211 -135 -88 -297 -193 -360 -234 -63 -41 -183 -120 -267 -174 l-151 -99 52
-73 c29 -41 66 -103 82 -140 15 -36 31 -66 35 -66 5 0 212 133 669 431 58 37
239 155 402 261 164 106 481 312 705 458 223 146 414 268 424 272 9 4 20 11
24 17 3 6 19 18 35 26 l29 15 -3 -1590 c-1 -875 2 -1590 7 -1590 4 0 222 134
483 297 261 164 485 305 498 313 14 8 50 31 80 50 l56 34 0 331 c0 181 3 1553
5 3048 3 1494 4 2717 2 2717 -1 0 -49 -29 -106 -65z"/>
<path d="M475 3093 c-194 -40 -372 -211 -448 -431 -39 -113 -28 -294 23 -402
42 -88 54 -104 119 -169 78 -77 172 -129 276 -152 113 -25 263 -6 364 46 116
58 196 140 269 275 57 105 76 177 75 285 -1 159 -53 286 -163 395 -137 137
-323 192 -515 153z"/>
</g>
</svg>
