<?xml version="1.0" encoding="UTF-8" standalone="no"?>
<!-- Created with Inkscape (http://www.inkscape.org/) -->

<svg
   xmlns:dc="http://purl.org/dc/elements/1.1/"
   xmlns:cc="http://creativecommons.org/ns#"
   xmlns:rdf="http://www.w3.org/1999/02/22-rdf-syntax-ns#"
   xmlns:svg="http://www.w3.org/2000/svg"
   xmlns="http://www.w3.org/2000/svg"
   xmlns:sodipodi="http://sodipodi.sourceforge.net/DTD/sodipodi-0.dtd"
   xmlns:inkscape="http://www.inkscape.org/namespaces/inkscape"
   width="1544"
   height="500"
   viewBox="0 0 1543.9999 500"
   id="svg4194"
   version="1.1"
   inkscape:version="0.91 r13725"
   sodipodi:docname="banner.svg"
   enable-background="new"
   inkscape:export-filename="/media/blanki/web/web-projects/knitkode/ui/customize-plus-builder/banner-banner-772x250.png"
   inkscape:export-xdpi="45"
   inkscape:export-ydpi="45">
  <defs
     id="defs4196">
    <filter
       inkscape:collect="always"
       style="color-interpolation-filters:sRGB"
       id="filter5154"
       x="-0.336"
       width="1.6720001"
       y="-0.336"
       height="1.6720001">
      <feGaussianBlur
         inkscape:collect="always"
         stdDeviation="50.911734"
         id="feGaussianBlur5156" />
    </filter>
    <filter
       style="color-interpolation-filters:sRGB;"
       inkscape:label="Drop Shadow"
       id="filter6226">
      <feFlood
         flood-opacity="0.215686"
         flood-color="rgb(0,0,0)"
         result="flood"
         id="feFlood6228" />
      <feComposite
         in="flood"
         in2="SourceGraphic"
         operator="in"
         result="composite1"
         id="feComposite6230" />
      <feGaussianBlur
         in="composite1"
         stdDeviation="16.4"
         result="blur"
         id="feGaussianBlur6232" />
      <feOffset
         dx="8.20106"
         dy="8.2"
         result="offset"
         id="feOffset6234" />
      <feComposite
         in="SourceGraphic"
         in2="offset"
         operator="over"
         result="composite2"
         id="feComposite6236" />
    </filter>
    <filter
       style="color-interpolation-filters:sRGB"
       inkscape:label="Drop Shadow"
       id="filter6226-0">
      <feFlood
         flood-opacity="0.215686"
         flood-color="rgb(0,0,0)"
         result="flood"
         id="feFlood6228-6" />
      <feComposite
         in="flood"
         in2="SourceGraphic"
         operator="in"
         result="composite1"
         id="feComposite6230-2" />
      <feGaussianBlur
         in="composite1"
         stdDeviation="16.4"
         result="blur"
         id="feGaussianBlur6232-6" />
      <feOffset
         dx="8.20106"
         dy="8.2"
         result="offset"
         id="feOffset6234-1" />
      <feComposite
         in="SourceGraphic"
         in2="offset"
         operator="over"
         result="composite2"
         id="feComposite6236-8" />
    </filter>
    <filter
       style="color-interpolation-filters:sRGB"
       inkscape:label="Drop Shadow"
       id="filter6226-0-9">
      <feFlood
         flood-opacity="0.215686"
         flood-color="rgb(0,0,0)"
         result="flood"
         id="feFlood6228-6-2" />
      <feComposite
         in="flood"
         in2="SourceGraphic"
         operator="in"
         result="composite1"
         id="feComposite6230-2-0" />
      <feGaussianBlur
         in="composite1"
         stdDeviation="16.4"
         result="blur"
         id="feGaussianBlur6232-6-2" />
      <feOffset
         dx="8.20106"
         dy="8.2"
         result="offset"
         id="feOffset6234-1-3" />
      <feComposite
         in="SourceGraphic"
         in2="offset"
         operator="over"
         result="composite2"
         id="feComposite6236-8-7" />
    </filter>
    <filter
       style="color-interpolation-filters:sRGB"
       inkscape:label="Drop Shadow"
       id="filter6226-9">
      <feFlood
         flood-opacity="0.215686"
         flood-color="rgb(0,0,0)"
         result="flood"
         id="feFlood6228-2" />
      <feComposite
         in="flood"
         in2="SourceGraphic"
         operator="in"
         result="composite1"
         id="feComposite6230-28" />
      <feGaussianBlur
         in="composite1"
         stdDeviation="16.4"
         result="blur"
         id="feGaussianBlur6232-9" />
      <feOffset
         dx="8.20106"
         dy="8.2"
         result="offset"
         id="feOffset6234-7" />
      <feComposite
         in="SourceGraphic"
         in2="offset"
         operator="over"
         result="composite2"
         id="feComposite6236-3" />
    </filter>
    <filter
       style="color-interpolation-filters:sRGB"
       inkscape:label="Drop Shadow"
       id="filter6226-9-1">
      <feFlood
         flood-opacity="0.215686"
         flood-color="rgb(0,0,0)"
         result="flood"
         id="feFlood6228-2-2" />
      <feComposite
         in="flood"
         in2="SourceGraphic"
         operator="in"
         result="composite1"
         id="feComposite6230-28-9" />
      <feGaussianBlur
         in="composite1"
         stdDeviation="16.4"
         result="blur"
         id="feGaussianBlur6232-9-3" />
      <feOffset
         dx="8.20106"
         dy="8.2"
         result="offset"
         id="feOffset6234-7-1" />
      <feComposite
         in="SourceGraphic"
         in2="offset"
         operator="over"
         result="composite2"
         id="feComposite6236-3-9" />
    </filter>
    <filter
       style="color-interpolation-filters:sRGB"
       inkscape:label="Drop Shadow"
       id="filter6226-9-1-4">
      <feFlood
         flood-opacity="0.215686"
         flood-color="rgb(0,0,0)"
         result="flood"
         id="feFlood6228-2-2-7" />
      <feComposite
         in="flood"
         in2="SourceGraphic"
         operator="in"
         result="composite1"
         id="feComposite6230-28-9-8" />
      <feGaussianBlur
         in="composite1"
         stdDeviation="16.4"
         result="blur"
         id="feGaussianBlur6232-9-3-4" />
      <feOffset
         dx="8.20106"
         dy="8.2"
         result="offset"
         id="feOffset6234-7-1-5" />
      <feComposite
         in="SourceGraphic"
         in2="offset"
         operator="over"
         result="composite2"
         id="feComposite6236-3-9-0" />
    </filter>
    <filter
       style="color-interpolation-filters:sRGB"
       inkscape:label="Drop Shadow"
       id="filter6226-0-9-3">
      <feFlood
         flood-opacity="0.215686"
         flood-color="rgb(0,0,0)"
         result="flood"
         id="feFlood6228-6-2-6" />
      <feComposite
         in="flood"
         in2="SourceGraphic"
         operator="in"
         result="composite1"
         id="feComposite6230-2-0-1" />
      <feGaussianBlur
         in="composite1"
         stdDeviation="16.4"
         result="blur"
         id="feGaussianBlur6232-6-2-0" />
      <feOffset
         dx="8.20106"
         dy="8.2"
         result="offset"
         id="feOffset6234-1-3-6" />
      <feComposite
         in="SourceGraphic"
         in2="offset"
         operator="over"
         result="composite2"
         id="feComposite6236-8-7-3" />
    </filter>
    <filter
       style="color-interpolation-filters:sRGB"
       inkscape:label="Drop Shadow"
       id="filter6226-9-1-4-6">
      <feFlood
         flood-opacity="0.215686"
         flood-color="rgb(0,0,0)"
         result="flood"
         id="feFlood6228-2-2-7-1" />
      <feComposite
         in="flood"
         in2="SourceGraphic"
         operator="in"
         result="composite1"
         id="feComposite6230-28-9-8-5" />
      <feGaussianBlur
         in="composite1"
         stdDeviation="16.4"
         result="blur"
         id="feGaussianBlur6232-9-3-4-5" />
      <feOffset
         dx="8.20106"
         dy="8.2"
         result="offset"
         id="feOffset6234-7-1-5-4" />
      <feComposite
         in="SourceGraphic"
         in2="offset"
         operator="over"
         result="composite2"
         id="feComposite6236-3-9-0-7" />
    </filter>
    <filter
       style="color-interpolation-filters:sRGB"
       inkscape:label="Drop Shadow"
       id="filter6226-0-9-3-6">
      <feFlood
         flood-opacity="0.215686"
         flood-color="rgb(0,0,0)"
         result="flood"
         id="feFlood6228-6-2-6-5" />
      <feComposite
         in="flood"
         in2="SourceGraphic"
         operator="in"
         result="composite1"
         id="feComposite6230-2-0-1-6" />
      <feGaussianBlur
         in="composite1"
         stdDeviation="16.4"
         result="blur"
         id="feGaussianBlur6232-6-2-0-9" />
      <feOffset
         dx="8.20106"
         dy="8.2"
         result="offset"
         id="feOffset6234-1-3-6-3" />
      <feComposite
         in="SourceGraphic"
         in2="offset"
         operator="over"
         result="composite2"
         id="feComposite6236-8-7-3-7" />
    </filter>
    <filter
       style="color-interpolation-filters:sRGB"
       inkscape:label="Drop Shadow"
       id="filter6226-9-1-4-4">
      <feFlood
         flood-opacity="0.215686"
         flood-color="rgb(0,0,0)"
         result="flood"
         id="feFlood6228-2-2-7-5" />
      <feComposite
         in="flood"
         in2="SourceGraphic"
         operator="in"
         result="composite1"
         id="feComposite6230-28-9-8-2" />
      <feGaussianBlur
         in="composite1"
         stdDeviation="16.4"
         result="blur"
         id="feGaussianBlur6232-9-3-4-54" />
      <feOffset
         dx="8.20106"
         dy="8.2"
         result="offset"
         id="feOffset6234-7-1-5-7" />
      <feComposite
         in="SourceGraphic"
         in2="offset"
         operator="over"
         result="composite2"
         id="feComposite6236-3-9-0-4" />
    </filter>
    <filter
       style="color-interpolation-filters:sRGB"
       inkscape:label="Drop Shadow"
       id="filter6226-0-9-3-4">
      <feFlood
         flood-opacity="0.215686"
         flood-color="rgb(0,0,0)"
         result="flood"
         id="feFlood6228-6-2-6-3" />
      <feComposite
         in="flood"
         in2="SourceGraphic"
         operator="in"
         result="composite1"
         id="feComposite6230-2-0-1-0" />
      <feGaussianBlur
         in="composite1"
         stdDeviation="16.4"
         result="blur"
         id="feGaussianBlur6232-6-2-0-7" />
      <feOffset
         dx="8.20106"
         dy="8.2"
         result="offset"
         id="feOffset6234-1-3-6-8" />
      <feComposite
         in="SourceGraphic"
         in2="offset"
         operator="over"
         result="composite2"
         id="feComposite6236-8-7-3-6" />
    </filter>
    <filter
       style="color-interpolation-filters:sRGB"
       inkscape:label="Drop Shadow"
       id="filter6226-9-1-4-4-7">
      <feFlood
         flood-opacity="0.215686"
         flood-color="rgb(0,0,0)"
         result="flood"
         id="feFlood6228-2-2-7-5-1" />
      <feComposite
         in="flood"
         in2="SourceGraphic"
         operator="in"
         result="composite1"
         id="feComposite6230-28-9-8-2-7" />
      <feGaussianBlur
         in="composite1"
         stdDeviation="16.4"
         result="blur"
         id="feGaussianBlur6232-9-3-4-54-2" />
      <feOffset
         dx="8.20106"
         dy="8.2"
         result="offset"
         id="feOffset6234-7-1-5-7-7" />
      <feComposite
         in="SourceGraphic"
         in2="offset"
         operator="over"
         result="composite2"
         id="feComposite6236-3-9-0-4-2" />
    </filter>
    <filter
       style="color-interpolation-filters:sRGB;"
       inkscape:label="Drop Shadow"
       id="filter6226-0-9-3-4-2">
      <feFlood
         flood-opacity="0.215686"
         flood-color="rgb(0,0,0)"
         result="flood"
         id="feFlood6228-6-2-6-3-6" />
      <feComposite
         in="flood"
         in2="SourceGraphic"
         operator="in"
         result="composite1"
         id="feComposite6230-2-0-1-0-1" />
      <feGaussianBlur
         in="composite1"
         stdDeviation="16.4"
         result="blur"
         id="feGaussianBlur6232-6-2-0-7-0" />
      <feOffset
         dx="8.20106"
         dy="8.2"
         result="offset"
         id="feOffset6234-1-3-6-8-6" />
      <feComposite
         in="SourceGraphic"
         in2="offset"
         operator="over"
         result="fbSourceGraphic"
         id="feComposite6236-8-7-3-6-1" />
      <feColorMatrix
         result="fbSourceGraphicAlpha"
         in="fbSourceGraphic"
         values="0 0 0 -1 0 0 0 0 -1 0 0 0 0 -1 0 0 0 0 1 0"
         id="feColorMatrix8968" />
      <feFlood
         id="feFlood8970"
         flood-opacity="0.917647"
         flood-color="rgb(255,255,252)"
         result="flood"
         in="fbSourceGraphic" />
      <feComposite
         id="feComposite8972"
         in2="fbSourceGraphic"
         in="flood"
         operator="in"
         result="composite1" />
      <feGaussianBlur
         id="feGaussianBlur8974"
         in="composite1"
         stdDeviation="10.6"
         result="blur" />
      <feOffset
         id="feOffset8976"
         dx="0"
         dy="0"
         result="offset" />
      <feComposite
         id="feComposite8978"
         in2="offset"
         in="fbSourceGraphic"
         operator="over"
         result="composite2" />
    </filter>
    <filter
       inkscape:collect="always"
       style="color-interpolation-filters:sRGB"
       id="filter8414"
       x="-0.38054765"
       width="1.7610953"
       y="-0.83082298"
       height="2.661646">
      <feGaussianBlur
         inkscape:collect="always"
         stdDeviation="159.24107"
         id="feGaussianBlur8416" />
    </filter>
    <filter
       inkscape:collect="always"
       style="color-interpolation-filters:sRGB"
       id="filter8414-3"
       x="-0.38054764"
       width="1.7610953"
       y="-0.830823"
       height="2.6616459">
      <feGaussianBlur
         inkscape:collect="always"
         stdDeviation="159.24107"
         id="feGaussianBlur8416-9" />
    </filter>
    <filter
       style="color-interpolation-filters:sRGB;"
       inkscape:label="Drop Shadow"
       id="filter9373">
      <feFlood
         flood-opacity="0.278431"
         flood-color="rgb(0,0,0)"
         result="flood"
         id="feFlood9375" />
      <feComposite
         in="flood"
         in2="SourceGraphic"
         operator="in"
         result="composite1"
         id="feComposite9377" />
      <feGaussianBlur
         in="composite1"
         stdDeviation="75.1"
         result="blur"
         id="feGaussianBlur9379" />
      <feOffset
         dx="9.3"
         dy="9.3"
         result="offset"
         id="feOffset9381" />
      <feComposite
         in="SourceGraphic"
         in2="offset"
         operator="over"
         result="composite2"
         id="feComposite9383" />
    </filter>
  </defs>
  <sodipodi:namedview
     id="base"
     pagecolor="#ffffff"
     bordercolor="#666666"
     borderopacity="1.0"
     inkscape:pageopacity="0.0"
     inkscape:pageshadow="2"
     inkscape:zoom="0.65"
     inkscape:cx="728.78221"
     inkscape:cy="243.79144"
     inkscape:document-units="px"
     inkscape:current-layer="layer2"
     showgrid="false"
     inkscape:window-width="1920"
     inkscape:window-height="1030"
     inkscape:window-x="0"
     inkscape:window-y="0"
     inkscape:window-maximized="1"
     fit-margin-top="0"
     fit-margin-left="0"
     fit-margin-right="0"
     fit-margin-bottom="0" />
  <metadata
     id="metadata4199">
    <rdf:RDF>
      <cc:Work
         rdf:about="">
        <dc:format>image/svg+xml</dc:format>
        <dc:type
           rdf:resource="http://purl.org/dc/dcmitype/StillImage" />
        <dc:title></dc:title>
      </cc:Work>
    </rdf:RDF>
  </metadata>
  <g
     inkscape:label="Background"
     inkscape:groupmode="layer"
     id="layer1"
     transform="translate(-1.3776018,-342.76538)"
     style="display:inline">
    <g
       inkscape:groupmode="layer"
       id="layer5"
       inkscape:label="solid">
      <path
         style="color:#000000;clip-rule:nonzero;display:inline;overflow:visible;visibility:visible;opacity:1;isolation:auto;mix-blend-mode:normal;color-interpolation:sRGB;color-interpolation-filters:linearRGB;solid-color:#000000;solid-opacity:1;fill:#4a494c;fill-opacity:0.90196079;fill-rule:evenodd;stroke:none;stroke-width:13;stroke-linecap:square;stroke-linejoin:miter;stroke-miterlimit:4;stroke-dasharray:none;stroke-dashoffset:0;stroke-opacity:1;marker:none;color-rendering:auto;image-rendering:auto;shape-rendering:auto;text-rendering:auto;enable-background:accumulate"
         d="m 1.3775408,342.76538 c 514.6666692,0 1029.3333592,0 1543.9999592,0 0,166.66666 0,333.33334 0,500 -514.6666,0 -1029.33329,0 -1543.9999592,0 0,-166.66666 0,-333.33334 0,-500 z"
         id="rect4844"
         inkscape:connector-curvature="0" />
    </g>
    <g
       inkscape:groupmode="layer"
       id="layer2"
       inkscape:label="bg"
       style="display:inline">
      <circle
         id="path3137-3-3-8-1-8-7-6-0-6"
         style="color:#000000;display:inline;overflow:visible;visibility:visible;fill:#eca27c;fill-opacity:0.14851487;fill-rule:nonzero;stroke:none;stroke-width:1;marker:none;filter:url(#filter5154);enable-background:accumulate"
         cx="283.42993"
         cy="592.76532"
         r="181.82762"
         transform="matrix(1.4581528,0,0,1.4581528,94.867498,-47.465802)" />
      <ellipse
         style="color:#000000;clip-rule:nonzero;display:inline;overflow:visible;visibility:visible;opacity:1;isolation:auto;mix-blend-mode:normal;color-interpolation:sRGB;color-interpolation-filters:linearRGB;solid-color:#000000;solid-opacity:1;fill:#a1b386;fill-opacity:0.2961165;fill-rule:evenodd;stroke:none;stroke-width:13;stroke-linecap:square;stroke-linejoin:miter;stroke-miterlimit:4;stroke-dasharray:none;stroke-dashoffset:0;stroke-opacity:1;marker:none;filter:url(#filter8414);color-rendering:auto;image-rendering:auto;shape-rendering:auto;text-rendering:auto;enable-background:accumulate"
         id="path8408"
         cx="1193.5204"
         cy="471.33679"
         rx="502.14285"
         ry="230"
         transform="matrix(0.52550897,0,0,0.60148901,387.22398,210.56685)" />
      <ellipse
         style="color:#000000;clip-rule:nonzero;display:inline;overflow:visible;visibility:visible;opacity:1;isolation:auto;mix-blend-mode:normal;color-interpolation:sRGB;color-interpolation-filters:linearRGB;solid-color:#000000;solid-opacity:1;fill:#ec407a;fill-opacity:0.20098039;fill-rule:evenodd;stroke:none;stroke-width:13;stroke-linecap:square;stroke-linejoin:miter;stroke-miterlimit:4;stroke-dasharray:none;stroke-dashoffset:0;stroke-opacity:1;marker:none;filter:url(#filter8414-3);color-rendering:auto;image-rendering:auto;shape-rendering:auto;text-rendering:auto;enable-background:accumulate"
         id="path8408-4"
         cx="1193.5204"
         cy="471.33679"
         rx="502.14285"
         ry="230"
         transform="matrix(0.42255258,0,0,0.59367462,175.2413,445.95438)" />
    </g>
  </g>
  <g
     inkscape:groupmode="layer"
     id="layer10"
     inkscape:label="Content"
     style="display:inline">
    <path
       style="color:#000000;display:inline;overflow:visible;visibility:visible;fill:#ffffff;fill-opacity:1;fill-rule:nonzero;stroke:none;stroke-width:1;marker:none;filter:url(#filter6226-9-1-4-6);enable-background:accumulate"
       d="m 418.22801,84.355453 c -91.48655,0 -165.64454,74.157957 -165.64454,165.644537 0,91.48656 74.15799,165.64453 165.64454,165.64453 42.23019,0 80.75935,-15.81332 110.01562,-41.82617 -8.28109,-7.36318 -15.84469,-15.53535 -22.51172,-24.4082 -23.34169,20.56848 -53.94523,33.05859 -87.5039,33.05859 -73.16375,0 -132.46876,-59.30494 -132.46876,-132.46875 0,-73.16393 59.30501,-132.46875 132.46876,-132.46875 33.55418,0 64.16336,12.49511 87.5039,33.05859 6.66703,-8.87263 14.23063,-17.04509 22.51172,-24.4082 C 498.98736,100.16868 460.4582,84.355453 418.22801,84.355453 Z"
       id="path3139-3-0-2-0-0-7-6-7-7-6-2"
       inkscape:connector-curvature="0"
       sodipodi:nodetypes="sssccsssccs"
       transform="matrix(1.0740929,0,0,1.0740929,20.425,-18.52324)" />
    <path
       style="color:#000000;display:inline;overflow:visible;visibility:visible;fill:#ec407a;fill-opacity:1;fill-rule:nonzero;stroke:none;stroke-width:1;marker:none;filter:url(#filter6226-0-9-3-6);enable-background:accumulate"
       d="m 550.75534,150.64843 c -8.54174,7.52971 -16.14156,16.11137 -22.51172,25.59375 11.10219,16.52601 18.57199,35.68414 21.29297,56.34375 l -69.49609,0 0,34.82812 69.49609,0 c -2.72118,20.65947 -10.19146,39.81789 -21.29297,56.34375 6.36815,9.47954 13.97319,18.06523 22.51172,25.59375 17.49724,-23.31001 29.01059,-51.39018 32.20899,-81.9375 l 36.68554,0 0,-34.82812 -36.68554,0 c -3.1984,-30.54734 -14.71175,-58.62765 -32.20899,-81.9375 z"
       id="path3139-3-0-2-0-0-7-6-7-7-7-5-0"
       inkscape:connector-curvature="0"
       sodipodi:nodetypes="ccccccccccccc"
       transform="matrix(1.0740929,0,0,1.0740929,20.425,-18.523238)" />
    <g
       id="g4878"
       transform="matrix(0.54612002,0,0,0.54612002,462.53326,-123.65201)"
       style="fill:#ec407a;fill-opacity:1">
      <path
         d="m 1126.5436,650.21389 q 9.2232,0 16.0192,3.10675 6.796,3.00966 10.4853,8.73773 3.6893,5.63099 3.6893,13.30078 0,7.66979 -3.6893,13.30077 -3.6893,5.63099 -10.4853,8.73774 -6.796,3.00966 -16.0192,3.00966 l -11.8445,0 0,17.76673 -19.223,0 0,-67.96016 31.0675,0 z m -1.165,35.04802 q 5.9222,0 8.9319,-2.52423 3.0097,-2.62132 3.0097,-7.37853 0,-4.75721 -3.0097,-7.37854 -3.0097,-2.62132 -8.9319,-2.62132 l -10.6795,0 0,19.90262 10.6795,0 z"
         style="font-style:normal;font-weight:normal;font-size:medium;line-height:125%;font-family:Sans;letter-spacing:-0.60000002px;word-spacing:0px;fill:#ec407a;fill-opacity:1;stroke:none;stroke-width:1px;stroke-linecap:butt;stroke-linejoin:miter;stroke-opacity:1"
         id="path4806"
         inkscape:connector-curvature="0" />
      <path
         d="m 1165.7488,650.21389 19.2231,0 0,52.71767 32.4267,0 0,15.24249 -51.6498,0 0,-67.96016 z"
         style="font-style:normal;font-weight:normal;font-size:medium;line-height:125%;font-family:Sans;letter-spacing:-0.60000002px;word-spacing:0px;fill:#ec407a;fill-opacity:1;stroke:none;stroke-width:1px;stroke-linecap:butt;stroke-linejoin:miter;stroke-opacity:1"
         id="path4808"
         inkscape:connector-curvature="0" />
      <path
         d="m 1255.2446,719.53325 q -15.1454,0 -23.5919,-8.2523 -8.3494,-8.25231 -8.3494,-23.39772 l 0,-37.66934 19.223,0 0,37.08683 q 0,16.31044 12.9125,16.31044 12.8153,0 12.8153,-16.31044 l 0,-37.08683 18.9318,0 0,37.66934 q 0,15.14541 -8.4465,23.39772 -8.3494,8.2523 -23.4948,8.2523 z"
         style="font-style:normal;font-weight:normal;font-size:medium;line-height:125%;font-family:Sans;letter-spacing:-0.60000002px;word-spacing:0px;fill:#ec407a;fill-opacity:1;stroke:none;stroke-width:1px;stroke-linecap:butt;stroke-linejoin:miter;stroke-opacity:1"
         id="path4810"
         inkscape:connector-curvature="0" />
      <path
         d="m 1323.7303,719.53325 q -8.2523,0 -16.0192,-2.0388 -7.7669,-2.03881 -12.6212,-5.43681 l 6.3106,-14.17455 q 4.563,3.00966 10.5824,4.85429 6.0193,1.84464 11.8445,1.84464 11.0678,0 11.0678,-5.5339 0,-2.91258 -3.2039,-4.27178 -3.1067,-1.45629 -10.0969,-3.00967 -7.6698,-1.65046 -12.8154,-3.49509 -5.1455,-1.94172 -8.8348,-6.11642 -3.6892,-4.17469 -3.6892,-11.26197 0,-6.2135 3.3979,-11.16488 3.3981,-5.04847 10.097,-7.96105 6.796,-2.91258 16.6017,-2.91258 6.6989,0 13.2037,1.55338 6.5047,1.45629 11.4561,4.36887 l -5.9222,14.27163 q -9.7086,-5.24264 -18.8347,-5.24264 -5.7281,0 -8.3494,1.74755 -2.6213,1.65046 -2.6213,4.36886 0,2.71841 3.1067,4.07761 3.1068,1.35921 9.9999,2.8155 7.7669,1.65046 12.8153,3.59218 5.1456,1.84463 8.8349,6.01933 3.7863,4.07761 3.7863,11.16488 0,6.11641 -3.398,11.0678 -3.398,4.95138 -10.194,7.96105 -6.796,2.91257 -16.5046,2.91257 z"
         style="font-style:normal;font-weight:normal;font-size:medium;line-height:125%;font-family:Sans;letter-spacing:-0.60000002px;word-spacing:0px;fill:#ec407a;fill-opacity:1;stroke:none;stroke-width:1px;stroke-linecap:butt;stroke-linejoin:miter;stroke-opacity:1"
         id="path4812"
         inkscape:connector-curvature="0" />
    </g>
    <g
       id="g4860"
       transform="matrix(0.54612002,0,0,0.54612002,464.71774,-123.65201)">
      <path
         sodipodi:nodetypes="sssccsssccs"
         id="path3139-3-0-2-0-0-7-6-7-7-8-3"
         d="m 538.90153,649.77916 c -19.00746,0 -34.4148,15.40735 -34.4148,34.41481 0,19.00746 15.40734,34.4148 34.4148,34.4148 8.77384,0 16.77868,-3.28536 22.85704,-8.68985 -1.7205,-1.52979 -3.29211,-3.22771 -4.67726,-5.07116 -4.84953,4.27336 -11.20756,6.86818 -18.17978,6.86818 -15.20067,0 -27.52199,-12.32128 -27.52199,-27.52197 0,-15.2007 12.32132,-27.522 27.52199,-27.522 6.97129,0 13.33049,2.59586 18.17978,6.86818 1.38515,-1.8434 2.95676,-3.54136 4.67726,-5.07113 -6.07836,-5.40451 -14.0832,-8.68986 -22.85704,-8.68986 z"
         style="color:#000000;display:inline;overflow:visible;visibility:visible;fill:#ffffff;fill-opacity:1;fill-rule:nonzero;stroke:none;stroke-width:1;marker:none;enable-background:accumulate"
         inkscape:connector-curvature="0" />
      <path
         inkscape:connector-curvature="0"
         id="rect4548-2-5-7-7"
         d="m 566.43624,663.5528 c -1.77466,1.56439 -3.35398,3.34711 -4.67746,5.31719 2.36433,3.51939 3.93835,7.61264 4.46681,12.02825 l -15.62303,0 0,6.59231 15.62303,0 c -0.5286,4.41524 -2.10279,8.50826 -4.46681,12.02739 1.32305,1.96949 2.90347,3.75304 4.67746,5.31719 3.69624,-4.92418 6.10142,-10.87419 6.718,-17.34458 l 3.87217,0 0,-6.59231 -3.87217,0 c -0.61645,-6.47073 -3.0216,-12.42108 -6.718,-17.34544 z"
         style="color:#000000;display:inline;overflow:visible;visibility:visible;fill:#ee524a;fill-opacity:1;fill-rule:nonzero;stroke:none;stroke-width:0.86934674;marker:none;enable-background:accumulate" />
    </g>
    <path
       inkscape:connector-curvature="0"
       id="path4790"
       style="font-style:normal;font-variant:normal;font-weight:normal;font-stretch:normal;font-size:218.75px;line-height:125%;font-family:Montserrat;-inkscape-font-specification:Montserrat;letter-spacing:-0.60000002px;word-spacing:0px;fill:#ffffff;fill-opacity:1;stroke:none;stroke-width:1px;stroke-linecap:butt;stroke-linejoin:miter;stroke-opacity:1"
       d="m 796.24936,268.87533 q -7.21081,0 -11.24036,-4.13561 -4.02957,-4.1356 -4.02957,-12.03567 l 0,-21.26125 3.92352,0 0,21.10219 q 0,6.46851 2.91613,9.64975 2.91614,3.18122 8.43028,3.18122 5.56715,0 8.48329,-3.18122 2.91613,-3.18124 2.91613,-9.64975 l 0,-21.10219 3.81748,0 0,21.26125 q 0,7.90007 -4.02957,12.03567 -3.97654,4.13561 -11.18733,4.13561 z" />
    <path
       inkscape:connector-curvature="0"
       id="path4792"
       style="font-style:normal;font-variant:normal;font-weight:normal;font-stretch:normal;font-size:218.75px;line-height:125%;font-family:Montserrat;-inkscape-font-specification:Montserrat;letter-spacing:-0.60000002px;word-spacing:0px;fill:#ffffff;fill-opacity:1;stroke:none;stroke-width:1px;stroke-linecap:butt;stroke-linejoin:miter;stroke-opacity:1"
       d="m 833.42876,268.87533 q -4.13561,0 -7.95309,-1.32551 -3.76446,-1.32552 -5.83227,-3.49936 l 1.5376,-3.02218 q 2.01478,2.01478 5.35508,3.28727 3.3403,1.21948 6.89268,1.21948 4.98393,0 7.4759,-1.8027 2.49196,-1.85572 2.49196,-4.77185 0,-2.22686 -1.37853,-3.55237 -1.32552,-1.32552 -3.28728,-2.01479 -1.96176,-0.74228 -5.46112,-1.59062 -4.18862,-1.06041 -6.68059,-2.01478 -2.49197,-1.00739 -4.29466,-3.02217 -1.74969,-2.01478 -1.74969,-5.46112 0,-2.81009 1.48458,-5.08998 1.48457,-2.3329 4.55977,-3.71144 3.07519,-1.37854 7.63496,-1.37854 3.18124,0 6.20341,0.90136 3.07519,0.84832 5.30206,2.38593 l -1.32551,3.1282 q -2.3329,-1.53759 -4.98394,-2.27988 -2.65103,-0.79531 -5.19602,-0.79531 -4.87789,0 -7.36986,1.90874 -2.43894,1.85572 -2.43894,4.82488 0,2.22686 1.3255,3.6054 1.37855,1.32551 3.39332,2.0678 2.06781,0.68927 5.51415,1.53759 4.08258,1.0074 6.57455,2.01479 2.54499,0.95437 4.29467,2.96915 1.74968,1.96176 1.74968,5.35508 0,2.81009 -1.5376,5.143 -1.48457,2.27988 -4.61279,3.65842 -3.12821,1.32551 -7.68798,1.32551 z" />
    <path
       inkscape:connector-curvature="0"
       id="path4794"
       style="font-style:normal;font-variant:normal;font-weight:normal;font-stretch:normal;font-size:218.75px;line-height:125%;font-family:Montserrat;-inkscape-font-specification:Montserrat;letter-spacing:-0.60000002px;word-spacing:0px;fill:#ffffff;fill-opacity:1;stroke:none;stroke-width:1px;stroke-linecap:butt;stroke-linejoin:miter;stroke-opacity:1"
       d="m 862.36346,234.83612 -13.04306,0 0,-3.39332 30.00964,0 0,3.39332 -13.04306,0 0,33.72109 -3.92352,0 0,-33.72109 z" />
    <path
       inkscape:connector-curvature="0"
       id="path4798"
       style="font-style:normal;font-variant:normal;font-weight:normal;font-stretch:normal;font-size:218.75px;line-height:125%;font-family:Montserrat;-inkscape-font-specification:Montserrat;letter-spacing:-0.60000002px;word-spacing:0px;fill:#ffffff;fill-opacity:1;stroke:none;stroke-width:1px;stroke-linecap:butt;stroke-linejoin:miter;stroke-opacity:1"
       d="m 965.56157,231.4428 0,37.11441 -3.76446,0 0,-29.69153 -14.58066,24.97269 -1.85572,0 -14.58066,-24.81363 0,29.53247 -3.76446,0 0,-37.11441 3.23425,0 16.11826,27.51768 15.9592,-27.51768 3.23425,0 z" />
    <path
       inkscape:connector-curvature="0"
       id="path4800"
       style="font-style:normal;font-variant:normal;font-weight:normal;font-stretch:normal;font-size:218.75px;line-height:125%;font-family:Montserrat;-inkscape-font-specification:Montserrat;letter-spacing:-0.60000002px;word-spacing:0px;fill:#ffffff;fill-opacity:1;stroke:none;stroke-width:1px;stroke-linecap:butt;stroke-linejoin:miter;stroke-opacity:1"
       d="m 977.50897,231.4428 3.92352,0 0,37.11441 -3.92352,0 0,-37.11441 z" />
    <path
       inkscape:connector-curvature="0"
       id="path4802"
       style="font-style:normal;font-variant:normal;font-weight:normal;font-stretch:normal;font-size:218.75px;line-height:125%;font-family:Montserrat;-inkscape-font-specification:Montserrat;letter-spacing:-0.60000002px;word-spacing:0px;fill:#ffffff;fill-opacity:1;stroke:none;stroke-width:1px;stroke-linecap:butt;stroke-linejoin:miter;stroke-opacity:1"
       d="m 1020.1901,265.16389 0,3.39332 -30.43385,0 0,-2.70405 24.60155,-31.01704 -24.23037,0 0,-3.39332 29.42647,0 0,2.70405 -24.54859,31.01704 25.18479,0 z" />
    <path
       inkscape:connector-curvature="0"
       id="path4804"
       style="font-style:normal;font-variant:normal;font-weight:normal;font-stretch:normal;font-size:218.75px;line-height:125%;font-family:Montserrat;-inkscape-font-specification:Montserrat;letter-spacing:-0.60000002px;word-spacing:0px;fill:#ffffff;fill-opacity:1;stroke:none;stroke-width:1px;stroke-linecap:butt;stroke-linejoin:miter;stroke-opacity:1"
       d="m 1053.9985,265.16389 0,3.39332 -26.2451,0 0,-37.11441 25.4498,0 0,3.39332 -21.5264,0 0,13.20213 19.1936,0 0,3.34029 -19.1936,0 0,13.78535 22.3217,0 z" />
    <path
       inkscape:connector-curvature="0"
       style="color:#000000;display:inline;overflow:visible;visibility:visible;fill:#ffffff;fill-opacity:1;fill-rule:nonzero;stroke:none;stroke-width:1;marker:none;enable-background:accumulate"
       d="m 900.45462,231.42817 c -10.2573,0 -18.57183,8.31452 -18.57183,18.57184 0,10.2573 8.31453,18.57184 18.57183,18.57184 4.73478,0 9.05457,-1.77293 12.33473,-4.68946 -0.92846,-0.82554 -1.77657,-1.74183 -2.52406,-2.73663 -2.61704,2.30609 -6.04812,3.7064 -9.81067,3.7064 -8.20298,0 -14.85215,-6.64916 -14.85215,-14.85215 0,-8.20302 6.64917,-14.85217 14.85215,-14.85217 3.76204,0 7.19376,1.40085 9.81067,3.7064 0.74749,-0.99479 1.5956,-1.91108 2.52406,-2.73662 -3.28016,-2.91653 -7.59995,-4.68945 -12.33473,-4.68945 z m 14.8588,7.43272 c -0.95768,0.84422 -1.80985,1.80633 -2.52407,2.86947 1.5882,2.36408 2.51743,5.20737 2.51743,8.26965 0,3.06216 -0.92933,5.90559 -2.51743,8.26965 0.714,1.06283 1.56676,2.02537 2.52407,2.86947 2.32933,-3.10315 3.71305,-6.96014 3.71305,-11.13912 0,-4.179 -1.38372,-8.036 -3.71305,-11.13912 z"
       id="path3139-3-0-2-0-0-7-6-7" />
    <text
       xml:space="preserve"
       style="font-style:normal;font-weight:normal;font-size:13.70055199px;line-height:125%;font-family:Sans;letter-spacing:0px;word-spacing:0px;display:inline;fill:#ffffff;fill-opacity:1;stroke:none;stroke-width:1px;stroke-linecap:butt;stroke-linejoin:miter;stroke-opacity:1"
       x="849.70105"
       y="341.80322"
       id="text4175"
       sodipodi:linespacing="125%"><tspan
         sodipodi:role="line"
         x="849.70105"
         y="341.80322"
         id="tspan4179"
         style="font-style:normal;font-variant:normal;font-weight:800;font-stretch:normal;font-size:74.92488861px;font-family:Montserrat;-inkscape-font-specification:'Montserrat Ultra-Bold';letter-spacing:-0.20550828px;fill:#ffffff;fill-opacity:1">BUILDER</tspan></text>
    <text
       xml:space="preserve"
       style="font-style:normal;font-weight:normal;font-size:40px;line-height:125%;font-family:Sans;letter-spacing:0px;word-spacing:0px;fill:#000000;fill-opacity:1;stroke:none;stroke-width:1px;stroke-linecap:butt;stroke-linejoin:miter;stroke-opacity:1"
       x="1100.2006"
       y="325.31635"
       id="text4303"
       sodipodi:linespacing="125%"><tspan
         sodipodi:role="line"
         id="tspan4305"
         x="1100.2006"
         y="325.31635"></tspan></text>
  </g>
</svg>
