<?xml version="1.0" encoding="UTF-8" standalone="no"?>
<!-- Created with Inkscape (http://www.inkscape.org/) -->

<svg
   xmlns:dc="http://purl.org/dc/elements/1.1/"
   xmlns:cc="http://creativecommons.org/ns#"
   xmlns:rdf="http://www.w3.org/1999/02/22-rdf-syntax-ns#"
   xmlns:svg="http://www.w3.org/2000/svg"
   xmlns="http://www.w3.org/2000/svg"
   xmlns:sodipodi="http://sodipodi.sourceforge.net/DTD/sodipodi-0.dtd"
   xmlns:inkscape="http://www.inkscape.org/namespaces/inkscape"
   width="300"
   height="300"
   id="svg18851"
   version="1.1"
   inkscape:version="0.48.4 r9939"
   sodipodi:docname="logo-light--white.svg">
  <defs
     id="defs18853" />
  <sodipodi:namedview
     id="base"
     pagecolor="#ffffff"
     bordercolor="#666666"
     borderopacity="1.0"
     inkscape:pageopacity="0.0"
     inkscape:pageshadow="2"
     inkscape:zoom="1.4"
     inkscape:cx="99.449595"
     inkscape:cy="182.98955"
     inkscape:document-units="px"
     inkscape:current-layer="layer1"
     showgrid="false"
     inkscape:window-width="1920"
     inkscape:window-height="1028"
     inkscape:window-x="0"
     inkscape:window-y="0"
     inkscape:window-maximized="1"
     fit-margin-top="0"
     fit-margin-left="0"
     fit-margin-right="0"
     fit-margin-bottom="0" />
  <metadata
     id="metadata18856">
    <rdf:RDF>
      <cc:Work
         rdf:about="">
        <dc:format>image/svg+xml</dc:format>
        <dc:type
           rdf:resource="http://purl.org/dc/dcmitype/StillImage" />
        <dc:title></dc:title>
      </cc:Work>
    </rdf:RDF>
  </metadata>
  <g
     inkscape:label="Layer 1"
     inkscape:groupmode="layer"
     id="layer1"
     transform="translate(-296.62726,-315.73495)">
    <path
       inkscape:connector-curvature="0"
       style="color:#000000;fill:#ffffff;fill-opacity:1;fill-rule:nonzero;stroke:none;stroke-width:1;marker:none;visibility:visible;display:inline;overflow:visible;enable-background:accumulate"
       d="m 446.60398,315.73495 c -82.83834,0 -149.97672,67.18509 -149.97672,150.02331 0,82.83822 67.13838,149.97669 149.97672,149.97669 82.83819,0 150.02328,-67.13847 150.02328,-149.97669 0,-82.83822 -67.18509,-150.02331 -150.02328,-150.02331 z"
       id="path3135-5-0-5-2-1-8-0" />
    <path
       style="font-size:medium;font-style:normal;font-variant:normal;font-weight:normal;font-stretch:normal;text-indent:0;text-align:start;text-decoration:none;line-height:normal;letter-spacing:normal;word-spacing:normal;text-transform:none;direction:ltr;block-progression:tb;writing-mode:lr-tb;text-anchor:start;baseline-shift:baseline;color:#000000;fill:#000000;fill-opacity:1;stroke:none;stroke-width:8;marker:none;visibility:visible;display:inline;overflow:visible;enable-background:accumulate;font-family:Sans;-inkscape-font-specification:Sans"
       d="m 191.53125,53.75 a 5.9698197,5.9698182 0 0 0 -3.21875,1.0625 L 149.875,80.75 117.84375,59.375 a 5.9698197,5.9698182 0 0 0 -0.3125,-0.21875 L 111.28125,55 a 5.9698197,5.9698182 0 0 0 -3.375,-0.9375 5.9698197,5.9698182 0 0 0 -3.25,10.875 l 6.25,4.15625 a 5.9698197,5.9698182 0 0 0 0.5,0.3125 l 27.78125,18.5625 -34.40625,23.1875 a 5.9698197,5.9698182 0 1 0 6.6875,9.875 l 38.4375,-25.90625 31.125,20.78125 -34.59375,23.03125 a 5.9698197,5.9698182 0 0 0 -2.71875,5 l 0.5625,111.21875 a 5.9698197,5.9698182 0 1 0 11.9375,-0.0312 l -0.5625,-108.03125 39.5,-26.1875 a 5.9698197,5.9698182 0 0 0 0,-9.9375 l -34.5625,-23.0625 34.375,-23.1875 A 5.9698197,5.9698182 0 0 0 191.53125,53.75 z"
       transform="translate(296.62726,315.73495)"
       id="path18368-7-0-1-1"
       inkscape:connector-curvature="0" />
    <path
       style="font-size:medium;font-style:normal;font-variant:normal;font-weight:normal;font-stretch:normal;text-indent:0;text-align:start;text-decoration:none;line-height:normal;letter-spacing:normal;word-spacing:normal;text-transform:none;direction:ltr;block-progression:tb;writing-mode:lr-tb;text-anchor:start;baseline-shift:baseline;color:#000000;fill:#000000;fill-opacity:1;stroke:none;stroke-width:8;marker:none;visibility:visible;display:inline;overflow:visible;enable-background:accumulate;font-family:Sans;-inkscape-font-specification:Sans"
       d="m 530.35627,397.69429 a 5.9698197,5.9698182 0 0 0 -5.87595,6.06249 l 0,50.08551 -39.35958,28.82013 a 5.9698197,5.9698182 0 1 0 7.04181,9.60672 l 41.83122,-30.59226 a 5.9698197,5.9698182 0 0 0 2.42499,-4.80336 l 0,-53.11674 a 5.9698197,5.9698182 0 0 0 -6.06249,-6.06249 z"
       id="path18370-1-9-1-4"
       inkscape:connector-curvature="0" />
    <path
       style="font-size:medium;font-style:normal;font-variant:normal;font-weight:normal;font-stretch:normal;text-indent:0;text-align:start;text-decoration:none;line-height:normal;letter-spacing:normal;word-spacing:normal;text-transform:none;direction:ltr;block-progression:tb;writing-mode:lr-tb;text-anchor:start;baseline-shift:baseline;color:#000000;fill:#000000;fill-opacity:1;stroke:none;stroke-width:8;marker:none;visibility:visible;display:inline;overflow:visible;enable-background:accumulate;font-family:Sans;-inkscape-font-specification:Sans"
       d="m 66.03125,81.96875 a 5.9698197,5.9698182 0 0 0 -5.875,6.0625 l 0,110.5625 a 5.9698197,5.9698182 0 0 0 0.03125,1.25 5.9698197,5.9698182 0 0 0 0.03125,0.375 5.9698197,5.9698182 0 0 0 0.0625,0.3125 5.9698197,5.9698182 0 0 0 0,0.0312 5.9698197,5.9698182 0 0 0 0.125,0.4375 5.9698197,5.9698182 0 0 0 0.15625,0.4375 5.9698197,5.9698182 0 0 0 0.03125,0.125 5.9698197,5.9698182 0 0 0 0.0625,0.125 5.9698197,5.9698182 0 0 0 3.09375,3.125 5.9698197,5.9698182 0 0 0 0.125,0.0625 l 40.375,27.03125 a 5.9698197,5.9698182 0 0 0 3.96875,1.46875 5.9698197,5.9698182 0 0 0 1.96875,-0.34375 5.9698197,5.9698182 0 0 0 0.34375,-0.125 5.9698197,5.9698182 0 0 0 3.59375,-6.4062 l 0,-55.0625 a 5.9698197,5.9698182 0 0 0 -6.0625,-6.0625 5.9698197,5.9698182 0 0 0 -5.875,6.0625 l 0,44.75 -30.09375,-20.125 0,-108.03125 a 5.9698197,5.9698182 0 0 0 -6.0625,-6.0625 z"
       transform="translate(296.62726,315.73495)"
       id="path18372-5-6-9-6"
       inkscape:connector-curvature="0" />
  </g>
</svg>
