<?xml version="1.0" encoding="UTF-8" standalone="no"?>
<!-- Generated by IcoMoon.io -->

<svg
   xmlns:dc="http://purl.org/dc/elements/1.1/"
   xmlns:cc="http://creativecommons.org/ns#"
   xmlns:rdf="http://www.w3.org/1999/02/22-rdf-syntax-ns#"
   xmlns:svg="http://www.w3.org/2000/svg"
   xmlns="http://www.w3.org/2000/svg"
   xmlns:sodipodi="http://sodipodi.sourceforge.net/DTD/sodipodi-0.dtd"
   xmlns:inkscape="http://www.inkscape.org/namespaces/inkscape"
   version="1.1"
   width="499.99997"
   height="384.40005"
   viewBox="0 0 499.99997 384.40005"
   id="svg2"
   inkscape:version="0.91 r13725"
   sodipodi:docname="logo.svg">
  <metadata
     id="metadata16">
    <rdf:RDF>
      <cc:Work
         rdf:about="">
        <dc:format>image/svg+xml</dc:format>
        <dc:type
           rdf:resource="http://purl.org/dc/dcmitype/StillImage" />
        <dc:title>logo</dc:title>
      </cc:Work>
    </rdf:RDF>
  </metadata>
  <defs
     id="defs14" />
  <sodipodi:namedview
     pagecolor="#ffffff"
     bordercolor="#666666"
     borderopacity="1"
     objecttolerance="10"
     gridtolerance="10"
     guidetolerance="10"
     inkscape:pageopacity="0"
     inkscape:pageshadow="2"
     inkscape:window-width="1920"
     inkscape:window-height="1030"
     id="namedview12"
     showgrid="false"
     inkscape:zoom="1.84375"
     inkscape:cx="227.73176"
     inkscape:cy="208.92779"
     inkscape:window-x="0"
     inkscape:window-y="0"
     inkscape:window-maximized="1"
     inkscape:current-layer="svg2"
     fit-margin-top="0"
     fit-margin-left="0"
     fit-margin-right="0"
     fit-margin-bottom="0" />
  <title
     id="title4">logo</title>
  <path
     d="m 240.48712,44.34507 -56.25132,35.19012 -0.12015,29.69954 -0.0721,56.92412 c -20.96511,-1.9223 -50.19609,-7.0164 -79.66737,-20.53257 C 21.669234,107.68488 0.043352,44.74154 0.043352,44.74154 c 0,66.007 -1.6099268,99.13064 79.823532,141.6255 31.898176,16.19538 62.174416,23.33192 91.261226,27.05638 L 60.968266,285.00508 c 3.556256,4.01281 6.391649,8.75849 8.265892,13.96072 l 0.09612,0.30035 114.641202,-74.48914 -0.21626,141.68557 -0.0241,17.93746 56.25132,-35.20213 0.46856,-286.90336 0.0241,-17.93747 z"
     id="path6"
     inkscape:connector-curvature="0" />
  <path
     d="m 316.29784,0.01201 -56.25132,35.20213 -0.46856,286.90336 -0.0241,17.93747 56.25132,-35.19012 0.12015,-29.69954 0.0841,-82.86317 c 20.9651,1.9223 50.19608,7.0164 79.65534,20.53257 82.70698,37.94141 104.33286,100.88474 104.33286,100.88474 0,-66.007 1.60993,-99.11863 -79.83554,-141.62549 -31.68192,-16.08726 -61.76592,-23.23581 -90.67252,-26.9843 L 459.90566,59.09873 C 517.67078,17.31271 512.40849,11.04121 447.17041,51.76995 L 378.13579,94.12064 316.08152,134.4409 316.26174,17.93747 316.28584,0 Z"
     id="path8"
     inkscape:connector-curvature="0" />
  <path
     d="m 29.939832,286.58203 c -0.06007,0 -0.132159,0 -0.204245,0 -10.500567,0 -19.655523,5.75489 -24.4853034,14.28509 l -0.072086,0.14418 -1.2615098,2.1746 C 1.4537398,307.2828 0,312.22071 0,317.49502 c 0,15.52258 12.591069,28.11365 28.113645,28.11365 10.476539,0 19.607467,-5.73086 24.449261,-14.22503 l 0.07209,-0.14416 1.249496,-2.17461 c 2.486977,-4.10892 3.95273,-9.07085 3.95273,-14.38121 0,-15.45049 -12.470925,-27.9935 -27.885372,-28.11365 l -0.01201,0 z"
     id="path10"
     inkscape:connector-curvature="0" />
</svg>
