<?xml version="1.0" encoding="UTF-8" standalone="no"?>
<!-- Created with Inkscape (http://www.inkscape.org/) -->

<svg
   xmlns:dc="http://purl.org/dc/elements/1.1/"
   xmlns:cc="http://creativecommons.org/ns#"
   xmlns:rdf="http://www.w3.org/1999/02/22-rdf-syntax-ns#"
   xmlns:svg="http://www.w3.org/2000/svg"
   xmlns="http://www.w3.org/2000/svg"
   xmlns:sodipodi="http://sodipodi.sourceforge.net/DTD/sodipodi-0.dtd"
   xmlns:inkscape="http://www.inkscape.org/namespaces/inkscape"
   width="300"
   height="300"
   id="svg18851"
   version="1.1"
   inkscape:version="0.48.4 r9939"
   sodipodi:docname="logo.svg">
  <defs
     id="defs18853" />
  <sodipodi:namedview
     id="base"
     pagecolor="#ffffff"
     bordercolor="#666666"
     borderopacity="1.0"
     inkscape:pageopacity="0.0"
     inkscape:pageshadow="2"
     inkscape:zoom="5.6"
     inkscape:cx="45.047171"
     inkscape:cy="60.730549"
     inkscape:document-units="px"
     inkscape:current-layer="layer1"
     showgrid="false"
     inkscape:window-width="1920"
     inkscape:window-height="1028"
     inkscape:window-x="0"
     inkscape:window-y="0"
     inkscape:window-maximized="1"
     fit-margin-top="0"
     fit-margin-left="0"
     fit-margin-right="0"
     fit-margin-bottom="0" />
  <metadata
     id="metadata18856">
    <rdf:RDF>
      <cc:Work
         rdf:about="">
        <dc:format>image/svg+xml</dc:format>
        <dc:type
           rdf:resource="http://purl.org/dc/dcmitype/StillImage" />
        <dc:title />
      </cc:Work>
    </rdf:RDF>
  </metadata>
  <g
     inkscape:label="Layer 1"
     inkscape:groupmode="layer"
     id="layer1"
     transform="translate(-296.62726,-315.73495)">
    <path
       inkscape:connector-curvature="0"
       style="color:#000000;fill:#464646;fill-opacity:1;fill-rule:nonzero;stroke:none;stroke-width:1;marker:none;visibility:visible;display:inline;overflow:visible;enable-background:accumulate"
       d="m 446.60398,315.73495 c -82.83834,0 -149.97672,67.18509 -149.97672,150.02331 0,82.83822 67.13838,149.97669 149.97672,149.97669 82.83819,0 150.02328,-67.13847 150.02328,-149.97669 0,-82.83822 -67.18509,-150.02331 -150.02328,-150.02331 z"
       id="path3135-5-0-5-2-1-8-0" />
    <path
       style="font-size:medium;font-style:normal;font-variant:normal;font-weight:normal;font-stretch:normal;text-indent:0;text-align:start;text-decoration:none;line-height:normal;letter-spacing:normal;word-spacing:normal;text-transform:none;direction:ltr;block-progression:tb;writing-mode:lr-tb;text-anchor:start;baseline-shift:baseline;color:#000000;fill:#ffffff;fill-opacity:1;stroke:none;stroke-width:8;marker:none;visibility:visible;display:inline;overflow:visible;enable-background:accumulate;font-family:Sans;-inkscape-font-specification:Sans"
       d="m 404.53624,369.80683 a 5.9698197,5.9698182 0 0 0 -3.26442,10.86585 l 6.24903,4.15047 a 5.9698197,5.9698182 0 0 0 0.51297,0.32646 l 69.62541,46.49463 -34.60284,23.03748 a 5.9698197,5.9698182 0 0 0 -2.7048,4.98987 l 0.55959,111.22338 a 5.9698197,5.9698182 0 1 0 11.93847,-0.0465 l -0.55962,-108.00558 39.49947,-26.20863 a 5.9698197,5.9698182 0 0 0 0,-9.93315 l -77.32011,-51.57786 a 5.9698197,5.9698182 0 0 0 -0.32643,-0.2331 l -6.24903,-4.15047 a 5.9698197,5.9698182 0 0 0 -3.35769,-0.9327 z"
       id="path18368-7-0-1-1"
       inkscape:connector-curvature="0" />
    <path
       style="font-size:medium;font-style:normal;font-variant:normal;font-weight:normal;font-stretch:normal;text-indent:0;text-align:start;text-decoration:none;line-height:normal;letter-spacing:normal;word-spacing:normal;text-transform:none;direction:ltr;block-progression:tb;writing-mode:lr-tb;text-anchor:start;baseline-shift:baseline;color:#000000;fill:#ffffff;fill-opacity:1;stroke:none;stroke-width:8;marker:none;visibility:visible;display:inline;overflow:visible;enable-background:accumulate;font-family:Sans;-inkscape-font-specification:Sans"
       d="m 530.35627,397.69429 a 5.9698197,5.9698182 0 0 0 -5.87595,6.06249 l 0,50.08551 -39.35958,28.82013 a 5.9698197,5.9698182 0 1 0 7.04181,9.60672 l 41.83122,-30.59226 a 5.9698197,5.9698182 0 0 0 2.42499,-4.80336 l 0,-53.11674 a 5.9698197,5.9698182 0 0 0 -6.06249,-6.06249 z"
       id="path18370-1-9-1-4"
       inkscape:connector-curvature="0" />
    <path
       style="font-size:medium;font-style:normal;font-variant:normal;font-weight:normal;font-stretch:normal;text-indent:0;text-align:start;text-decoration:none;line-height:normal;letter-spacing:normal;word-spacing:normal;text-transform:none;direction:ltr;block-progression:tb;writing-mode:lr-tb;text-anchor:start;baseline-shift:baseline;color:#000000;fill:#ffffff;fill-opacity:1;stroke:none;stroke-width:8;marker:none;visibility:visible;display:inline;overflow:visible;enable-background:accumulate;font-family:Sans;-inkscape-font-specification:Sans"
       d="m 362.6584,397.69429 a 5.9698197,5.9698182 0 0 0 -5.87595,6.06249 l 0,111.22338 a 5.9698197,5.9698182 0 1 0 11.93847,0 l 0,-111.22338 a 5.9698197,5.9698182 0 0 0 -6.06252,-6.06249 z"
       id="path18372-5-6-9-6"
       inkscape:connector-curvature="0" />
    <path
       style="font-size:medium;font-style:normal;font-variant:normal;font-weight:normal;font-stretch:normal;text-indent:0;text-align:start;text-decoration:none;line-height:normal;letter-spacing:normal;word-spacing:normal;text-transform:none;direction:ltr;block-progression:tb;writing-mode:lr-tb;text-anchor:start;baseline-shift:baseline;color:#000000;fill:#ffffff;fill-opacity:1;stroke:none;stroke-width:8;marker:none;visibility:visible;display:inline;overflow:visible;enable-background:accumulate;font-family:Sans;-inkscape-font-specification:Sans"
       d="m 404.67613,481.12348 a 5.9698197,5.9698182 0 0 0 -5.87595,6.06249 l 0,55.86819 a 5.9698197,5.9698182 0 1 0 11.93847,0 l 0,-55.86819 a 5.9698197,5.9698182 0 0 0 -6.06252,-6.06249 z"
       id="path18374-5-6-3-0"
       inkscape:connector-curvature="0" />
    <path
       style="font-size:medium;font-style:normal;font-variant:normal;font-weight:normal;font-stretch:normal;text-indent:0;text-align:start;text-decoration:none;line-height:normal;letter-spacing:normal;word-spacing:normal;text-transform:none;direction:ltr;block-progression:tb;writing-mode:lr-tb;text-anchor:start;baseline-shift:baseline;color:#000000;fill:#ffffff;fill-opacity:1;stroke:none;stroke-width:8;marker:none;visibility:visible;display:inline;overflow:visible;enable-background:accumulate;font-family:Sans;-inkscape-font-specification:Sans"
       d="m 488.152,369.4804 a 5.9698197,5.9698182 0 0 0 -3.2178,1.07259 l -83.52246,56.33454 a 5.9698197,5.9698182 0 1 0 6.66873,9.8865 l 83.52249,-56.33451 A 5.9698197,5.9698182 0 0 0 488.152,369.4804 z"
       id="path18376-0-1-5-6"
       inkscape:connector-curvature="0" />
    <path
       style="font-size:medium;font-style:normal;font-variant:normal;font-weight:normal;font-stretch:normal;text-indent:0;text-align:start;text-decoration:none;line-height:normal;letter-spacing:normal;word-spacing:normal;text-transform:none;direction:ltr;block-progression:tb;writing-mode:lr-tb;text-anchor:start;baseline-shift:baseline;color:#000000;fill:#ffffff;fill-opacity:1;stroke:none;stroke-width:8;marker:none;visibility:visible;display:inline;overflow:visible;enable-background:accumulate;font-family:Sans;-inkscape-font-specification:Sans"
       d="m 362.70505,508.96432 a 5.9698197,5.9698182 0 0 0 -3.26442,10.95912 l 42.01773,28.12062 a 5.9698197,5.9698182 0 1 0 6.62211,-9.93315 l -41.97111,-28.074 a 5.9698197,5.9698182 0 0 0 -3.40431,-1.07259 z"
       id="path18444-8-6-1"
       inkscape:connector-curvature="0" />
  </g>
</svg>
