<?xml version="1.0" encoding="UTF-8" standalone="no"?>
<!-- Created with Inkscape (http://www.inkscape.org/) -->

<svg
   xmlns:dc="http://purl.org/dc/elements/1.1/"
   xmlns:cc="http://creativecommons.org/ns#"
   xmlns:rdf="http://www.w3.org/1999/02/22-rdf-syntax-ns#"
   xmlns:svg="http://www.w3.org/2000/svg"
   xmlns="http://www.w3.org/2000/svg"
   xmlns:sodipodi="http://sodipodi.sourceforge.net/DTD/sodipodi-0.dtd"
   xmlns:inkscape="http://www.inkscape.org/namespaces/inkscape"
   width="300"
   height="300"
   id="svg18851"
   version="1.1"
   inkscape:version="0.48.4 r9939"
   sodipodi:docname="logo-white--unbordered.svg"
   inkscape:export-filename="/media/blanki/web/web-projects/pluswp/pluswp/design/logo-white--unbordered.png"
   inkscape:export-xdpi="90"
   inkscape:export-ydpi="90">
  <defs
     id="defs18853" />
  <sodipodi:namedview
     id="base"
     pagecolor="#ffffff"
     bordercolor="#666666"
     borderopacity="1.0"
     inkscape:pageopacity="0.0"
     inkscape:pageshadow="2"
     inkscape:zoom="1.4"
     inkscape:cx="99.449595"
     inkscape:cy="182.98955"
     inkscape:document-units="px"
     inkscape:current-layer="layer1"
     showgrid="false"
     inkscape:window-width="1920"
     inkscape:window-height="1028"
     inkscape:window-x="0"
     inkscape:window-y="0"
     inkscape:window-maximized="1"
     fit-margin-top="0"
     fit-margin-left="0"
     fit-margin-right="0"
     fit-margin-bottom="0" />
  <metadata
     id="metadata18856">
    <rdf:RDF>
      <cc:Work
         rdf:about="">
        <dc:format>image/svg+xml</dc:format>
        <dc:type
           rdf:resource="http://purl.org/dc/dcmitype/StillImage" />
        <dc:title></dc:title>
      </cc:Work>
    </rdf:RDF>
  </metadata>
  <g
     inkscape:label="Layer 1"
     inkscape:groupmode="layer"
     id="layer1"
     transform="translate(-296.62726,-315.73495)">
    <path
       style="font-size:medium;font-style:normal;font-variant:normal;font-weight:normal;font-stretch:normal;text-indent:0;text-align:start;text-decoration:none;line-height:normal;letter-spacing:normal;word-spacing:normal;text-transform:none;direction:ltr;block-progression:tb;writing-mode:lr-tb;text-anchor:start;baseline-shift:baseline;color:#000000;fill:#000000;fill-opacity:1;stroke:none;stroke-width:8;marker:none;visibility:visible;display:inline;overflow:visible;enable-background:accumulate;font-family:Sans;-inkscape-font-specification:Sans"
       d="m 510.32606,315.73897 a 8.6321036,8.6321014 0 0 0 -4.65417,1.53633 l -55.57898,37.50452 -46.31582,-30.90734 a 8.6321036,8.6321014 0 0 0 -0.45186,-0.3163 l -9.03723,-6.00976 a 8.6321036,8.6321014 0 0 0 -4.88011,-1.35559 8.6321036,8.6321014 0 0 0 -4.69936,15.72479 l 9.03723,6.00976 a 8.6321036,8.6321014 0 0 0 0.72298,0.45186 l 40.1705,26.84058 -49.74996,33.52813 a 8.6321036,8.6321014 0 1 0 9.66984,14.27883 l 55.57897,-37.45933 45.00542,30.0488 -50.02108,33.3022 a 8.6321036,8.6321014 0 0 0 -3.9312,7.22978 l 0.81335,160.81755 a 8.6321036,8.6321014 0 1 0 17.26112,-0.0452 l -0.81335,-156.20856 57.11531,-37.86601 a 8.6321036,8.6321014 0 0 0 0,-14.3692 l -49.9759,-33.34738 49.70478,-33.52813 a 8.6321036,8.6321014 0 0 0 -4.97048,-15.86035 z"
       id="path18368-7-0-1-1"
       inkscape:connector-curvature="0" />
    <path
       style="font-size:medium;font-style:normal;font-variant:normal;font-weight:normal;font-stretch:normal;text-indent:0;text-align:start;text-decoration:none;line-height:normal;letter-spacing:normal;word-spacing:normal;text-transform:none;direction:ltr;block-progression:tb;writing-mode:lr-tb;text-anchor:start;baseline-shift:baseline;color:#000000;fill:#000000;fill-opacity:1;stroke:none;stroke-width:8;marker:none;visibility:visible;display:inline;overflow:visible;enable-background:accumulate;font-family:Sans;-inkscape-font-specification:Sans"
       d="m 571.34221,356.52847 a 8.6321036,8.6321014 0 0 0 -8.49637,8.7661 l 0,72.4215 -56.91226,41.67268 a 8.6321036,8.6321014 0 1 0 10.18215,13.8909 l 60.48615,-44.2351 a 8.6321036,8.6321014 0 0 0 3.50643,-6.94545 l 0,-76.80453 a 8.6321036,8.6321014 0 0 0 -8.7661,-8.7661 z"
       id="path18370-1-9-1-4"
       inkscape:connector-curvature="0" />
    <path
       style="font-size:medium;font-style:normal;font-variant:normal;font-weight:normal;font-stretch:normal;text-indent:0;text-align:start;text-decoration:none;line-height:normal;letter-spacing:normal;word-spacing:normal;text-transform:none;direction:ltr;block-progression:tb;writing-mode:lr-tb;text-anchor:start;baseline-shift:baseline;color:#000000;fill:#000000;fill-opacity:1;stroke:none;stroke-width:8;marker:none;visibility:visible;display:inline;overflow:visible;enable-background:accumulate;font-family:Sans;-inkscape-font-specification:Sans"
       d="m 328.85844,356.54208 a 8.6321036,8.6321014 0 0 0 -8.495,8.76611 l 0,159.86864 a 8.6321036,8.6321014 0 0 0 0.0452,1.80745 8.6321036,8.6321014 0 0 0 0.0452,0.54223 8.6321036,8.6321014 0 0 0 0.0904,0.45186 8.6321036,8.6321014 0 0 0 0,0.0452 8.6321036,8.6321014 0 0 0 0.18075,0.63261 8.6321036,8.6321014 0 0 0 0.22593,0.6326 8.6321036,8.6321014 0 0 0 0.0452,0.18075 8.6321036,8.6321014 0 0 0 0.0904,0.18074 8.6321036,8.6321014 0 0 0 4.47343,4.51862 8.6321036,8.6321014 0 0 0 0.18074,0.0904 l 58.38052,39.08603 a 8.6321036,8.6321014 0 0 0 5.73864,2.12375 8.6321036,8.6321014 0 0 0 2.84673,-0.49705 8.6321036,8.6321014 0 0 0 0.49705,-0.18074 8.6321036,8.6321014 0 0 0 5.19641,-9.26317 l 0,-79.61801 a 8.6321036,8.6321014 0 0 0 -8.76612,-8.76612 8.6321036,8.6321014 0 0 0 -8.49499,8.76612 l 0,64.70658 -43.51428,-29.09989 0,-156.20856 a 8.6321036,8.6321014 0 0 0 -8.76611,-8.76611 z"
       id="path18372-5-6-9-6"
       inkscape:connector-curvature="0" />
  </g>
</svg>
