<?xml version="1.0" encoding="UTF-8" standalone="no"?>
<!-- Created with Inkscape (http://www.inkscape.org/) -->

<svg
   xmlns:dc="http://purl.org/dc/elements/1.1/"
   xmlns:cc="http://creativecommons.org/ns#"
   xmlns:rdf="http://www.w3.org/1999/02/22-rdf-syntax-ns#"
   xmlns:svg="http://www.w3.org/2000/svg"
   xmlns="http://www.w3.org/2000/svg"
   xmlns:sodipodi="http://sodipodi.sourceforge.net/DTD/sodipodi-0.dtd"
   xmlns:inkscape="http://www.inkscape.org/namespaces/inkscape"
   width="300"
   height="300"
   id="svg18851"
   version="1.1"
   inkscape:version="0.48.4 r9939"
   sodipodi:docname="logo.svg">
  <defs
     id="defs18853" />
  <sodipodi:namedview
     id="base"
     pagecolor="#ffffff"
     bordercolor="#666666"
     borderopacity="1.0"
     inkscape:pageopacity="0.0"
     inkscape:pageshadow="2"
     inkscape:zoom="1.4"
     inkscape:cx="99.449595"
     inkscape:cy="182.98955"
     inkscape:document-units="px"
     inkscape:current-layer="layer1"
     showgrid="false"
     inkscape:window-width="1920"
     inkscape:window-height="1028"
     inkscape:window-x="0"
     inkscape:window-y="0"
     inkscape:window-maximized="1"
     fit-margin-top="0"
     fit-margin-left="0"
     fit-margin-right="0"
     fit-margin-bottom="0" />
  <metadata
     id="metadata18856">
    <rdf:RDF>
      <cc:Work
         rdf:about="">
        <dc:format>image/svg+xml</dc:format>
        <dc:type
           rdf:resource="http://purl.org/dc/dcmitype/StillImage" />
        <dc:title></dc:title>
      </cc:Work>
    </rdf:RDF>
  </metadata>
  <g
     inkscape:label="Layer 1"
     inkscape:groupmode="layer"
     id="layer1"
     transform="translate(-296.62726,-315.73495)">
    <path
       inkscape:connector-curvature="0"
       style="color:#000000;fill:none;fill-opacity:1;fill-rule:nonzero;stroke:#000000;stroke-width:1;marker:none;visibility:visible;display:inline;overflow:visible;enable-background:accumulate;stroke-opacity:1"
       d="m 446.60398,315.73495 c -82.83834,0 -149.97672,67.18509 -149.97672,150.02331 0,82.83822 67.13838,149.97669 149.97672,149.97669 82.83819,0 150.02328,-67.13847 150.02328,-149.97669 0,-82.83822 -67.18509,-150.02331 -150.02328,-150.02331 z"
       id="path3135-5-0-5-2-1-8-0" />
    <path
       style="font-size:medium;font-style:normal;font-variant:normal;font-weight:normal;font-stretch:normal;text-indent:0;text-align:start;text-decoration:none;line-height:normal;letter-spacing:normal;word-spacing:normal;text-transform:none;direction:ltr;block-progression:tb;writing-mode:lr-tb;text-anchor:start;baseline-shift:baseline;color:#000000;fill:#000000;fill-opacity:1;stroke:none;stroke-width:8;marker:none;visibility:visible;display:inline;overflow:visible;enable-background:accumulate;font-family:Sans;-inkscape-font-specification:Sans"
       d="M 191.53125 53.75 A 5.9698197 5.9698182 0 0 0 188.3125 54.8125 L 149.875 80.75 L 117.84375 59.375 A 5.9698197 5.9698182 0 0 0 117.53125 59.15625 L 111.28125 55 A 5.9698197 5.9698182 0 0 0 107.90625 54.0625 A 5.9698197 5.9698182 0 0 0 104.65625 64.9375 L 110.90625 69.09375 A 5.9698197 5.9698182 0 0 0 111.40625 69.40625 L 139.1875 87.96875 L 104.78125 111.15625 A 5.9698197 5.9698182 0 1 0 111.46875 121.03125 L 149.90625 95.125 L 181.03125 115.90625 L 146.4375 138.9375 A 5.9698197 5.9698182 0 0 0 143.71875 143.9375 L 144.28125 255.15625 A 5.9698197 5.9698182 0 1 0 156.21875 255.125 L 155.65625 147.09375 L 195.15625 120.90625 A 5.9698197 5.9698182 0 0 0 195.15625 110.96875 L 160.59375 87.90625 L 194.96875 64.71875 A 5.9698197 5.9698182 0 0 0 191.53125 53.75 z "
       transform="translate(296.62726,315.73495)"
       id="path18368-7-0-1-1" />
    <path
       style="font-size:medium;font-style:normal;font-variant:normal;font-weight:normal;font-stretch:normal;text-indent:0;text-align:start;text-decoration:none;line-height:normal;letter-spacing:normal;word-spacing:normal;text-transform:none;direction:ltr;block-progression:tb;writing-mode:lr-tb;text-anchor:start;baseline-shift:baseline;color:#000000;fill:#000000;fill-opacity:1;stroke:none;stroke-width:8;marker:none;visibility:visible;display:inline;overflow:visible;enable-background:accumulate;font-family:Sans;-inkscape-font-specification:Sans"
       d="m 530.35627,397.69429 a 5.9698197,5.9698182 0 0 0 -5.87595,6.06249 l 0,50.08551 -39.35958,28.82013 a 5.9698197,5.9698182 0 1 0 7.04181,9.60672 l 41.83122,-30.59226 a 5.9698197,5.9698182 0 0 0 2.42499,-4.80336 l 0,-53.11674 a 5.9698197,5.9698182 0 0 0 -6.06249,-6.06249 z"
       id="path18370-1-9-1-4"
       inkscape:connector-curvature="0" />
    <path
       style="font-size:medium;font-style:normal;font-variant:normal;font-weight:normal;font-stretch:normal;text-indent:0;text-align:start;text-decoration:none;line-height:normal;letter-spacing:normal;word-spacing:normal;text-transform:none;direction:ltr;block-progression:tb;writing-mode:lr-tb;text-anchor:start;baseline-shift:baseline;color:#000000;fill:#000000;fill-opacity:1;stroke:none;stroke-width:8;marker:none;visibility:visible;display:inline;overflow:visible;enable-background:accumulate;font-family:Sans;-inkscape-font-specification:Sans"
       d="M 66.03125 81.96875 A 5.9698197 5.9698182 0 0 0 60.15625 88.03125 L 60.15625 198.59375 A 5.9698197 5.9698182 0 0 0 60.1875 199.84375 A 5.9698197 5.9698182 0 0 0 60.21875 200.21875 A 5.9698197 5.9698182 0 0 0 60.28125 200.53125 A 5.9698197 5.9698182 0 0 0 60.28125 200.5625 A 5.9698197 5.9698182 0 0 0 60.40625 201 A 5.9698197 5.9698182 0 0 0 60.5625 201.4375 A 5.9698197 5.9698182 0 0 0 60.59375 201.5625 A 5.9698197 5.9698182 0 0 0 60.65625 201.6875 A 5.9698197 5.9698182 0 0 0 63.75 204.8125 A 5.9698197 5.9698182 0 0 0 63.875 204.875 L 104.25 231.90625 A 5.9698197 5.9698182 0 0 0 108.21875 233.375 A 5.9698197 5.9698182 0 0 0 110.1875 233.03125 A 5.9698197 5.9698182 0 0 0 110.53125 232.90625 A 5.9698197 5.9698182 0 0 0 114.125 226.5 L 114.125 171.4375 A 5.9698197 5.9698182 0 0 0 108.0625 165.375 A 5.9698197 5.9698182 0 0 0 102.1875 171.4375 L 102.1875 216.1875 L 72.09375 196.0625 L 72.09375 88.03125 A 5.9698197 5.9698182 0 0 0 66.03125 81.96875 z "
       transform="translate(296.62726,315.73495)"
       id="path18372-5-6-9-6" />
  </g>
</svg>
