<?xml version="1.0" encoding="UTF-8" standalone="no"?>
<!-- Created with Inkscape (http://www.inkscape.org/) -->

<svg
   xmlns:dc="http://purl.org/dc/elements/1.1/"
   xmlns:cc="http://creativecommons.org/ns#"
   xmlns:rdf="http://www.w3.org/1999/02/22-rdf-syntax-ns#"
   xmlns:svg="http://www.w3.org/2000/svg"
   xmlns="http://www.w3.org/2000/svg"
   xmlns:sodipodi="http://sodipodi.sourceforge.net/DTD/sodipodi-0.dtd"
   xmlns:inkscape="http://www.inkscape.org/namespaces/inkscape"
   width="1913.7856"
   height="159.25"
   viewBox="0 0 1913.7856 159.25"
   id="svg4194"
   version="1.1"
   inkscape:version="0.91 r13725"
   sodipodi:docname="name.svg">
  <defs
     id="defs4196" />
  <sodipodi:namedview
     id="base"
     pagecolor="#ffffff"
     bordercolor="#666666"
     borderopacity="1.0"
     inkscape:pageopacity="0.0"
     inkscape:pageshadow="2"
     inkscape:zoom="0.49497475"
     inkscape:cx="867.13397"
     inkscape:cy="49.578292"
     inkscape:document-units="px"
     inkscape:current-layer="layer1"
     showgrid="false"
     inkscape:window-width="1920"
     inkscape:window-height="1030"
     inkscape:window-x="0"
     inkscape:window-y="0"
     inkscape:window-maximized="1"
     fit-margin-top="0"
     fit-margin-left="0"
     fit-margin-right="0"
     fit-margin-bottom="0" />
  <metadata
     id="metadata4199">
    <rdf:RDF>
      <cc:Work
         rdf:about="">
        <dc:format>image/svg+xml</dc:format>
        <dc:type
           rdf:resource="http://purl.org/dc/dcmitype/StillImage" />
        <dc:title></dc:title>
      </cc:Work>
    </rdf:RDF>
  </metadata>
  <g
     inkscape:label="Layer 1"
     inkscape:groupmode="layer"
     id="layer1"
     transform="translate(-2.1238518,-683.51538)">
    <path
       inkscape:connector-curvature="0"
       id="path5467"
       style="font-style:normal;font-variant:normal;font-weight:300;font-stretch:normal;font-size:218.75px;line-height:125%;font-family:Montserrat;-inkscape-font-specification:'Montserrat Light';letter-spacing:0px;word-spacing:0px;fill:#464646;fill-opacity:1;stroke:none;stroke-width:1px;stroke-linecap:butt;stroke-linejoin:miter;stroke-opacity:1"
       d="m 81.530102,840.79663 q -22.53125,0 -40.6875,-10.0625 -17.9375,-10.0625 -28.4375,-27.78125 -10.2812502,-17.71875 -10.2812502,-39.8125 0,-22.09375 10.2812502,-39.8125 10.5,-17.71875 28.4375,-27.78125 18.15625,-10.0625 40.6875,-10.0625 16.625,0 30.624998,5.46875 14,5.25 23.84375,15.75 l -7,7.21875 q -18.375,-18.15625 -47.031248,-18.15625 -19.25,0 -35,8.75 -15.75,8.75 -24.71875,24.28125 -8.96875,15.3125 -8.96875,34.34375 0,19.03125 8.96875,34.5625 8.96875,15.3125 24.71875,24.0625 15.75,8.75 35,8.75 28.437498,0 47.031248,-18.375 l 7,7.21875 q -9.84375,10.5 -24.0625,15.96875 -13.999998,5.46875 -30.406248,5.46875 z" />
    <path
       inkscape:connector-curvature="0"
       id="path5469"
       style="font-style:normal;font-variant:normal;font-weight:300;font-stretch:normal;font-size:218.75px;line-height:125%;font-family:Montserrat;-inkscape-font-specification:'Montserrat Light';letter-spacing:0px;word-spacing:0px;fill:#464646;fill-opacity:1;stroke:none;stroke-width:1px;stroke-linecap:butt;stroke-linejoin:miter;stroke-opacity:1"
       d="m 233.08967,840.79663 q -29.09375,0 -45.28125,-16.84375 -15.96875,-16.84375 -15.96875,-49.21875 l 0,-88.15625 11.15625,0 0,87.71875 q 0,28.21875 12.90625,42.21875 12.90625,14 37.40625,14 24.28125,0 37.1875,-14 12.90625,-14 12.90625,-42.21875 l 0,-87.71875 11.15625,0 0,88.15625 q 0,32.375 -16.1875,49.21875 -16.1875,16.84375 -45.28125,16.84375 z" />
    <path
       inkscape:connector-curvature="0"
       id="path5471"
       style="font-style:normal;font-variant:normal;font-weight:300;font-stretch:normal;font-size:218.75px;line-height:125%;font-family:Montserrat;-inkscape-font-specification:'Montserrat Light';letter-spacing:0px;word-spacing:0px;fill:#464646;fill-opacity:1;stroke:none;stroke-width:1px;stroke-linecap:butt;stroke-linejoin:miter;stroke-opacity:1"
       d="m 386.86409,840.79663 q -16.84375,0 -32.15625,-5.6875 -15.09375,-5.90625 -23.625,-15.09375 l 5.03125,-8.3125 q 8.09375,8.53125 21.65625,14 13.78125,5.25 28.875,5.25 21.875,0 33.03125,-8.3125 11.15625,-8.3125 11.15625,-21.65625 0,-10.28125 -5.90625,-16.40625 -5.90625,-6.125 -14.65625,-9.40625 -8.75,-3.28125 -23.625,-6.78125 -16.84375,-4.15625 -27.125,-8.09375 -10.0625,-3.9375 -17.28125,-12.03125 -7,-8.3125 -7,-22.09375 0,-11.15625 5.90625,-20.34375 5.90625,-9.40625 17.9375,-14.875 12.25,-5.46875 30.40625,-5.46875 12.6875,0 24.9375,3.71875 12.25,3.71875 21.21875,10.0625 l -4.15625,8.96875 q -9.1875,-6.34375 -20.34375,-9.625 -10.9375,-3.28125 -21.65625,-3.28125 -21.21875,0 -32.15625,8.53125 -10.9375,8.53125 -10.9375,22.09375 0,10.28125 5.90625,16.40625 5.90625,6.125 14.65625,9.40625 8.75,3.28125 23.84375,7 16.84375,4.15625 26.90625,8.09375 10.0625,3.9375 17.0625,12.03125 7.21875,7.875 7.21875,21.4375 0,11.15625 -6.125,20.34375 -5.90625,9.1875 -18.375,14.65625 -12.46875,5.46875 -30.625,5.46875 z" />
    <path
       inkscape:connector-curvature="0"
       id="path5473"
       style="font-style:normal;font-variant:normal;font-weight:300;font-stretch:normal;font-size:218.75px;line-height:125%;font-family:Montserrat;-inkscape-font-specification:'Montserrat Light';letter-spacing:0px;word-spacing:0px;fill:#464646;fill-opacity:1;stroke:none;stroke-width:1px;stroke-linecap:butt;stroke-linejoin:miter;stroke-opacity:1"
       d="m 507.09114,696.64038 -55.125,0 0,-10.0625 121.40625,0 0,10.0625 -55.125,0 0,143.0625 -11.15625,0 0,-143.0625 z" />
    <path
       inkscape:connector-curvature="0"
       id="path5475"
       style="font-style:normal;font-variant:normal;font-weight:300;font-stretch:normal;font-size:218.75px;line-height:125%;font-family:Montserrat;-inkscape-font-specification:'Montserrat Light';letter-spacing:0px;word-spacing:0px;fill:#464646;fill-opacity:1;stroke:none;stroke-width:1px;stroke-linecap:butt;stroke-linejoin:miter;stroke-opacity:1"
       d="m 663.65803,840.79663 q -22.53125,0 -40.6875,-10.0625 -18.15625,-10.28125 -28.65625,-28 -10.28125,-17.71875 -10.28125,-39.59375 0,-21.875 10.28125,-39.59375 10.5,-17.71875 28.65625,-27.78125 18.15625,-10.28125 40.6875,-10.28125 22.53125,0 40.6875,10.0625 18.15625,10.0625 28.4375,27.78125 10.5,17.71875 10.5,39.8125 0,22.09375 -10.5,39.8125 -10.28125,17.71875 -28.4375,27.78125 -18.15625,10.0625 -40.6875,10.0625 z m 0,-10.28125 q 19.25,0 34.78125,-8.75 15.53125,-8.75 24.5,-24.0625 8.96875,-15.53125 8.96875,-34.5625 0,-19.03125 -8.96875,-34.34375 -8.96875,-15.53125 -24.5,-24.28125 -15.53125,-8.75 -34.78125,-8.75 -19.25,0 -35,8.75 -15.53125,8.75 -24.5,24.28125 -8.96875,15.3125 -8.96875,34.34375 0,19.03125 8.96875,34.5625 8.96875,15.3125 24.5,24.0625 15.75,8.75 35,8.75 z" />
    <path
       inkscape:connector-curvature="0"
       id="path5477"
       style="font-style:normal;font-variant:normal;font-weight:300;font-stretch:normal;font-size:218.75px;line-height:125%;font-family:Montserrat;-inkscape-font-specification:'Montserrat Light';letter-spacing:0px;word-spacing:0px;fill:#464646;fill-opacity:1;stroke:none;stroke-width:1px;stroke-linecap:butt;stroke-linejoin:miter;stroke-opacity:1"
       d="m 926.79036,839.70288 -0.21875,-131.03125 -64.09375,110.6875 -5.46875,0 -64.09375,-110.25 0,130.59375 -10.9375,0 0,-153.125 9.40625,0 68.46875,118.34375 68.46875,-118.34375 9.1875,0 0.21875,153.125 -10.9375,0 z" />
    <path
       inkscape:connector-curvature="0"
       id="path5479"
       style="font-style:normal;font-variant:normal;font-weight:300;font-stretch:normal;font-size:218.75px;line-height:125%;font-family:Montserrat;-inkscape-font-specification:'Montserrat Light';letter-spacing:0px;word-spacing:0px;fill:#464646;fill-opacity:1;stroke:none;stroke-width:1px;stroke-linecap:butt;stroke-linejoin:miter;stroke-opacity:1"
       d="m 990.9012,686.57788 11.1562,0 0,153.125 -11.1562,0 0,-153.125 z" />
    <path
       inkscape:connector-curvature="0"
       id="path5481"
       style="font-style:normal;font-variant:normal;font-weight:300;font-stretch:normal;font-size:218.75px;line-height:125%;font-family:Montserrat;-inkscape-font-specification:'Montserrat Light';letter-spacing:0px;word-spacing:0px;fill:#464646;fill-opacity:1;stroke:none;stroke-width:1px;stroke-linecap:butt;stroke-linejoin:miter;stroke-opacity:1"
       d="m 1162.3841,829.64038 0,10.0625 -123.375,0 0,-7.875 105.6563,-135.1875 -104.3438,0 0,-10.0625 119.6563,0 0,7.875 -105.4375,135.1875 107.8437,0 z" />
    <path
       inkscape:connector-curvature="0"
       id="path5483"
       style="font-style:normal;font-variant:normal;font-weight:300;font-stretch:normal;font-size:218.75px;line-height:125%;font-family:Montserrat;-inkscape-font-specification:'Montserrat Light';letter-spacing:0px;word-spacing:0px;fill:#464646;fill-opacity:1;stroke:none;stroke-width:1px;stroke-linecap:butt;stroke-linejoin:miter;stroke-opacity:1"
       d="m 1302.4901,829.64038 0,10.0625 -105.6563,0 0,-153.125 102.375,0 0,10.0625 -91.2187,0 0,60.375 81.5937,0 0,9.84375 -81.5937,0 0,62.78125 94.5,0 z" />
    <path
       inkscape:connector-curvature="0"
       id="path5485"
       style="font-style:normal;font-variant:normal;font-weight:800;font-stretch:normal;font-size:218.75px;line-height:125%;font-family:Montserrat;-inkscape-font-specification:'Montserrat Ultra-Bold';letter-spacing:0px;word-spacing:0px;fill:#464646;fill-opacity:1;stroke:none;stroke-width:1px;stroke-linecap:butt;stroke-linejoin:miter;stroke-opacity:1"
       d="m 1402.0042,686.57788 q 20.7813,0 36.0938,7 15.3125,6.78125 23.625,19.6875 8.3125,12.6875 8.3125,29.96875 0,17.28125 -8.3125,29.96875 -8.3125,12.6875 -23.625,19.6875 -15.3125,6.78125 -36.0938,6.78125 l -26.6875,0 0,40.03125 -43.3125,0 0,-153.125 70,0 z m -2.625,78.96875 q 13.3438,0 20.125,-5.6875 6.7813,-5.90625 6.7813,-16.625 0,-10.71875 -6.7813,-16.625 -6.7812,-5.90625 -20.125,-5.90625 l -24.0625,0 0,44.84375 24.0625,0 z" />
    <path
       inkscape:connector-curvature="0"
       id="path5487"
       style="font-style:normal;font-variant:normal;font-weight:800;font-stretch:normal;font-size:218.75px;line-height:125%;font-family:Montserrat;-inkscape-font-specification:'Montserrat Ultra-Bold';letter-spacing:0px;word-spacing:0px;fill:#464646;fill-opacity:1;stroke:none;stroke-width:1px;stroke-linecap:butt;stroke-linejoin:miter;stroke-opacity:1"
       d="m 1490.9398,686.57788 43.3125,0 0,118.78125 73.0625,0 0,34.34375 -116.375,0 0,-153.125 z" />
    <path
       inkscape:connector-curvature="0"
       id="path5489"
       style="font-style:normal;font-variant:normal;font-weight:800;font-stretch:normal;font-size:218.75px;line-height:125%;font-family:Montserrat;-inkscape-font-specification:'Montserrat Ultra-Bold';letter-spacing:0px;word-spacing:0px;fill:#464646;fill-opacity:1;stroke:none;stroke-width:1px;stroke-linecap:butt;stroke-linejoin:miter;stroke-opacity:1"
       d="m 1693.1878,842.76538 q -34.125,0 -53.1562,-18.59375 -18.8125,-18.59375 -18.8125,-52.71875 l 0,-84.875 43.3125,0 0,83.5625 q 0,36.75 29.0937,36.75 28.875,0 28.875,-36.75 l 0,-83.5625 42.6563,0 0,84.875 q 0,34.125 -19.0313,52.71875 -18.8125,18.59375 -52.9375,18.59375 z" />
    <path
       inkscape:connector-curvature="0"
       id="path5491"
       style="font-style:normal;font-variant:normal;font-weight:800;font-stretch:normal;font-size:218.75px;line-height:125%;font-family:Montserrat;-inkscape-font-specification:'Montserrat Ultra-Bold';letter-spacing:0px;word-spacing:0px;fill:#464646;fill-opacity:1;stroke:none;stroke-width:1px;stroke-linecap:butt;stroke-linejoin:miter;stroke-opacity:1"
       d="m 1848.097,842.76538 q -18.5938,0 -36.0938,-4.59375 -17.5,-4.59375 -28.4375,-12.25 l 14.2188,-31.9375 q 10.2812,6.78125 23.8437,10.9375 13.5625,4.15625 26.6875,4.15625 24.9375,0 24.9375,-12.46875 0,-6.5625 -7.2187,-9.625 -7,-3.28125 -22.75,-6.78125 -17.2813,-3.71875 -28.875,-7.875 -11.5938,-4.375 -19.9063,-13.78125 -8.3125,-9.40625 -8.3125,-25.375 0,-14 7.6563,-25.15625 7.6562,-11.375 22.75,-17.9375 15.3125,-6.5625 37.4062,-6.5625 15.0938,0 29.75,3.5 14.6563,3.28125 25.8125,9.84375 l -13.3437,32.15625 q -21.875,-11.8125 -42.4375,-11.8125 -12.9063,0 -18.8125,3.9375 -5.9063,3.71875 -5.9063,9.84375 0,6.125 7,9.1875 7,3.0625 22.5313,6.34375 17.5,3.71875 28.875,8.09375 11.5937,4.15625 19.9062,13.5625 8.5313,9.1875 8.5313,25.15625 0,13.78125 -7.6563,24.9375 -7.6562,11.15625 -22.9687,17.9375 -15.3125,6.5625 -37.1875,6.5625 z" />
  </g>
</svg>
